<svg width="2048" height="2048" viewBox="0 0 2048 2048" fill="none" xmlns="http://www.w3.org/2000/svg">
<rect width="2048" height="2048" fill="white"/>
<path d="M1582.56 1505.7C1480.3 1610.47 1348.62 1766.12 1288.38 1835.97L909.17 1446.11L1371.8 874.478L1937.84 888.465L1896.35 1176.18C1841.71 1232.36 1684.82 1400.92 1582.56 1505.7Z" fill="#FF9933"/>
<path d="M514.648 262.387C645.94 167.747 842.058 110.559 1077.4 110.559C1398.49 110.559 1704.87 215.118 1874.88 540.002C1956.63 696.222 2027.94 1052.13 1890.74 1183.45C1750 1204.12 1580.36 1250.28 1478.19 1363.22C1371.54 1481.11 1290.48 1665.32 1290.48 1834.4C1193.84 1888.85 1086.5 1924.53 979.476 1934.16C735.279 1956.12 443.911 1868.04 274.06 1667.88C125.474 1492.79 60.5327 1237.24 85.057 1001.55C116.392 700.405 280.055 431.492 514.648 262.387Z" fill="#FFCC66"/>
<path d="M760.314 581.581C794.988 610.844 778.314 638.377 748.661 673.513C719.007 708.65 687.603 738.084 652.929 708.82C618.255 679.557 614.185 627.351 643.839 592.214C673.492 557.078 725.64 552.317 760.314 581.581Z" fill="#333333"/>
<path d="M1128.74 541.857C1114.53 585.583 1083.3 582.374 1039.57 568.164C995.845 553.955 956.187 534.127 970.397 490.401C984.606 446.675 1031.57 422.746 1075.3 436.955C1119.02 451.165 1142.95 498.131 1128.74 541.857Z" fill="#333333"/>
<path d="M1421.9 592.214C1436.39 586.782 1452.54 594.122 1457.97 608.61C1491.46 697.925 1486.92 825.055 1452.52 949.541C1417.95 1074.69 1351.87 1202.19 1256.52 1292.23C1113.57 1427.24 888.238 1486.83 699.682 1408.84C616.233 1374.32 549.769 1305.36 506.226 1225.76C462.685 1146.17 440.699 1053.52 448.611 968.885C450.051 953.479 463.707 942.157 479.113 943.597C494.519 945.037 505.841 958.694 504.401 974.1C497.671 1046.09 516.423 1127.65 555.384 1198.87C594.342 1270.08 652.143 1328.54 721.099 1357.06C886.15 1425.33 1088.54 1373.8 1218.05 1251.49C1304.19 1170.14 1365.94 1052.53 1398.51 934.619C1431.27 816.047 1433.21 702.167 1405.51 628.285C1400.07 613.797 1407.41 597.647 1421.9 592.214Z" fill="#333333"/>
</svg>
