<svg width="3085" height="1092" viewBox="0 0 3085 1092" fill="none" xmlns="http://www.w3.org/2000/svg">
<rect width="3085" height="1091.51" fill="white"/>
<path d="M820.344 770.275C772.68 819.112 711.304 891.66 683.228 924.218L506.478 742.505L722.11 476.064L985.943 482.583L966.602 616.687C941.137 642.874 868.009 721.438 820.344 770.275Z" fill="#FF9933"/>
<path d="M322.59 190.767C383.786 146.655 475.197 120 584.89 120C734.552 120 877.355 168.735 956.597 320.164C994.701 392.978 1027.94 558.866 963.99 620.074C898.388 629.71 819.322 651.227 771.701 703.866C721.989 758.815 684.208 844.674 684.208 923.483C639.162 948.863 589.133 965.495 539.247 969.981C425.427 980.217 289.62 939.163 210.452 845.871C141.196 764.259 110.926 645.146 122.357 535.292C136.962 394.928 213.246 269.587 322.59 190.767Z" fill="#FFCC66"/>
<path d="M437.096 339.544C453.257 353.184 445.485 366.017 431.664 382.394C417.842 398.771 403.205 412.49 387.043 398.851C370.881 385.211 368.985 360.877 382.806 344.5C396.628 328.123 420.934 325.904 437.096 339.544Z" fill="#333333"/>
<path d="M608.821 321.029C602.198 341.41 587.639 339.914 567.258 333.291C546.877 326.668 528.392 317.426 535.015 297.045C541.638 276.664 563.529 265.511 583.91 272.134C604.291 278.757 615.444 300.648 608.821 321.029Z" fill="#333333"/>
<path d="M745.463 344.5C752.216 341.968 759.743 345.389 762.275 352.142C777.886 393.772 775.767 453.028 759.736 511.051C743.62 569.381 712.819 628.81 668.378 670.78C601.747 733.705 496.721 761.483 408.835 725.13C369.939 709.042 338.96 676.898 318.665 639.798C298.37 602.701 288.122 559.516 291.81 520.067C292.481 512.886 298.847 507.609 306.027 508.28C313.208 508.952 318.485 515.317 317.814 522.498C314.677 556.054 323.418 594.068 341.577 627.264C359.736 660.457 386.677 687.701 418.817 700.996C495.748 732.817 590.083 708.797 650.445 651.792C690.598 613.872 719.377 559.056 734.562 504.096C749.831 448.829 750.734 395.75 737.821 361.313C735.288 354.56 738.71 347.033 745.463 344.5Z" fill="#333333"/>
<path d="M1302.08 468.756H1153.6C1149.55 468.756 1146.56 467.903 1144.64 466.196C1142.93 464.276 1142.08 461.29 1142.08 457.236V249.876C1142.08 245.823 1142.93 242.943 1144.64 241.236C1146.56 239.316 1149.55 238.356 1153.6 238.356H1302.08C1306.13 238.356 1309.01 239.316 1310.72 241.236C1312.64 242.943 1313.6 245.823 1313.6 249.876V287.316C1313.6 291.37 1312.64 294.356 1310.72 296.276C1309.01 297.983 1306.13 298.836 1302.08 298.836H1213.76V323.476H1276.16C1280.21 323.476 1283.09 324.436 1284.8 326.356C1286.72 328.063 1287.68 330.943 1287.68 334.996V369.236C1287.68 373.29 1286.72 376.276 1284.8 378.196C1283.09 379.903 1280.21 380.756 1276.16 380.756H1213.76V408.276H1302.08C1306.13 408.276 1309.01 409.236 1310.72 411.156C1312.64 412.863 1313.6 415.743 1313.6 419.796V457.236C1313.6 461.29 1312.64 464.276 1310.72 466.196C1309.01 467.903 1306.13 468.756 1302.08 468.756ZM1434.98 305.556L1419.94 354.196H1470.18L1455.14 305.556C1454.28 303.636 1453.32 302.25 1452.26 301.396C1451.4 300.543 1450.34 300.116 1449.06 300.116H1441.06C1439.78 300.116 1438.6 300.543 1437.54 301.396C1436.68 302.25 1435.83 303.636 1434.98 305.556ZM1416.74 457.236C1416.74 461.29 1415.78 464.276 1413.85 466.196C1412.15 467.903 1409.27 468.756 1405.22 468.756H1358.18C1354.12 468.756 1351.14 467.903 1349.22 466.196C1347.51 464.276 1346.66 461.29 1346.66 457.236V372.756C1346.66 366.356 1347.62 358.996 1349.54 350.676C1351.67 342.356 1354.87 332.65 1359.14 321.556L1386.98 248.916C1388.26 245.29 1390.18 242.623 1392.74 240.916C1395.51 239.21 1399.03 238.356 1403.3 238.356H1489.38C1493.43 238.356 1496.74 239.21 1499.3 240.916C1502.07 242.623 1504.1 245.29 1505.38 248.916L1533.22 321.556C1537.48 332.65 1540.58 342.356 1542.5 350.676C1544.63 358.996 1545.7 366.356 1545.7 372.756V457.236C1545.7 461.29 1544.74 464.276 1542.82 466.196C1541.11 467.903 1538.23 468.756 1534.18 468.756H1485.86C1481.59 468.756 1478.39 467.903 1476.26 466.196C1474.34 464.276 1473.38 461.29 1473.38 457.236V412.436H1416.74V457.236ZM1692.09 468.756H1590.97C1586.91 468.756 1583.93 467.903 1582.01 466.196C1580.3 464.276 1579.45 461.29 1579.45 457.236V419.796C1579.45 415.743 1580.3 412.863 1582.01 411.156C1583.93 409.236 1586.91 408.276 1590.97 408.276H1677.05C1679.82 408.276 1681.85 407.423 1683.13 405.716C1684.62 403.796 1685.37 401.556 1685.37 398.996C1685.37 395.37 1684.62 392.703 1683.13 390.996C1681.85 389.29 1679.82 388.33 1677.05 388.116L1629.05 381.396C1614.11 379.263 1602.06 374.356 1592.89 366.676C1583.93 358.996 1579.45 346.196 1579.45 328.276V294.676C1579.45 276.543 1585.31 262.676 1597.05 253.076C1608.78 243.263 1624.99 238.356 1645.69 238.356H1735.29C1739.34 238.356 1742.22 239.316 1743.92 241.236C1745.84 242.943 1746.81 245.823 1746.81 249.876V287.956C1746.81 292.01 1745.84 294.996 1743.92 296.916C1742.22 298.623 1739.34 299.476 1735.29 299.476H1660.73C1657.95 299.476 1655.82 300.436 1654.33 302.356C1652.83 304.063 1652.09 306.303 1652.09 309.076C1652.09 311.85 1652.83 314.196 1654.33 316.116C1655.82 318.036 1657.95 319.103 1660.73 319.316L1708.41 325.716C1723.34 327.85 1735.39 332.756 1744.57 340.436C1753.74 348.116 1758.33 360.916 1758.33 378.836V412.436C1758.33 430.57 1752.35 444.543 1740.41 454.356C1728.67 463.956 1712.57 468.756 1692.09 468.756ZM1907.01 468.756H1855.17C1851.11 468.756 1848.13 467.903 1846.21 466.196C1844.5 464.276 1843.65 461.29 1843.65 457.236V416.276L1794.69 350.676C1789.78 344.063 1786.47 338.303 1784.77 333.396C1783.27 328.49 1782.53 321.13 1782.53 311.316V249.876C1782.53 245.823 1783.38 242.943 1785.09 241.236C1787.01 239.316 1789.99 238.356 1794.05 238.356H1843.33C1847.38 238.356 1850.26 239.316 1851.97 241.236C1853.89 242.943 1854.85 245.823 1854.85 249.876V302.356C1854.85 304.49 1854.95 306.73 1855.17 309.076C1855.38 311.423 1856.23 313.663 1857.73 315.796L1872.45 338.836C1873.51 340.756 1874.58 342.143 1875.65 342.996C1876.93 343.85 1878.42 344.276 1880.13 344.276H1883.33C1885.03 344.276 1886.42 343.85 1887.49 342.996C1888.77 342.143 1889.94 340.756 1891.01 338.836L1905.73 315.796C1907.22 313.663 1908.07 311.423 1908.29 309.076C1908.5 306.73 1908.61 304.49 1908.61 302.356V249.876C1908.61 245.823 1909.46 242.943 1911.17 241.236C1913.09 239.316 1916.07 238.356 1920.13 238.356H1967.81C1971.86 238.356 1974.74 239.316 1976.45 241.236C1978.37 242.943 1979.33 245.823 1979.33 249.876V311.316C1979.33 321.13 1978.47 328.49 1976.77 333.396C1975.06 338.303 1971.86 344.063 1967.17 350.676L1918.53 416.596V457.236C1918.53 461.29 1917.57 464.276 1915.65 466.196C1913.94 467.903 1911.06 468.756 1907.01 468.756ZM1261.44 852.756H1153.6C1149.55 852.756 1146.56 851.903 1144.64 850.196C1142.93 848.276 1142.08 845.29 1142.08 841.236V633.876C1142.08 629.823 1142.93 626.943 1144.64 625.236C1146.56 623.316 1149.55 622.356 1153.6 622.356H1261.44C1288.11 622.356 1307.84 627.69 1320.64 638.356C1333.65 649.023 1340.16 665.45 1340.16 687.636V787.476C1340.16 809.663 1333.65 826.09 1320.64 836.756C1307.84 847.423 1288.11 852.756 1261.44 852.756ZM1214.72 683.476V792.276H1252.8C1257.92 792.276 1261.65 790.996 1264 788.436C1266.56 785.876 1267.84 781.93 1267.84 776.596V698.836C1267.84 693.503 1266.56 689.663 1264 687.316C1261.65 684.756 1257.92 683.476 1252.8 683.476H1214.72ZM1387.23 852.756C1383.18 852.756 1380.19 851.903 1378.27 850.196C1376.56 848.276 1375.71 845.29 1375.71 841.236V803.156C1375.71 799.103 1376.56 796.223 1378.27 794.516C1380.19 792.596 1383.18 791.636 1387.23 791.636H1418.91V684.116H1387.23C1383.18 684.116 1380.19 683.263 1378.27 681.556C1376.56 679.636 1375.71 676.65 1375.71 672.596V633.876C1375.71 629.823 1376.56 626.943 1378.27 625.236C1380.19 623.316 1383.18 622.356 1387.23 622.356H1523.55C1527.6 622.356 1530.48 623.316 1532.19 625.236C1534.11 626.943 1535.07 629.823 1535.07 633.876V672.596C1535.07 676.65 1534.11 679.636 1532.19 681.556C1530.48 683.263 1527.6 684.116 1523.55 684.116H1492.51V791.636H1523.55C1527.6 791.636 1530.48 792.596 1532.19 794.516C1534.11 796.223 1535.07 799.103 1535.07 803.156V841.236C1535.07 845.29 1534.11 848.276 1532.19 850.196C1530.48 851.903 1527.6 852.756 1523.55 852.756H1387.23ZM1658.1 689.556L1643.06 738.196H1693.3L1678.26 689.556C1677.41 687.636 1676.45 686.25 1675.38 685.396C1674.53 684.543 1673.46 684.116 1672.18 684.116H1664.18C1662.9 684.116 1661.73 684.543 1660.66 685.396C1659.81 686.25 1658.95 687.636 1658.1 689.556ZM1639.86 841.236C1639.86 845.29 1638.9 848.276 1636.98 850.196C1635.27 851.903 1632.39 852.756 1628.34 852.756H1581.3C1577.25 852.756 1574.26 851.903 1572.34 850.196C1570.63 848.276 1569.78 845.29 1569.78 841.236V756.756C1569.78 750.356 1570.74 742.996 1572.66 734.676C1574.79 726.356 1577.99 716.65 1582.26 705.556L1610.1 632.916C1611.38 629.29 1613.3 626.623 1615.86 624.916C1618.63 623.21 1622.15 622.356 1626.42 622.356H1712.5C1716.55 622.356 1719.86 623.21 1722.42 624.916C1725.19 626.623 1727.22 629.29 1728.5 632.916L1756.34 705.556C1760.61 716.65 1763.7 726.356 1765.62 734.676C1767.75 742.996 1768.82 750.356 1768.82 756.756V841.236C1768.82 845.29 1767.86 848.276 1765.94 850.196C1764.23 851.903 1761.35 852.756 1757.3 852.756H1708.98C1704.71 852.756 1701.51 851.903 1699.38 850.196C1697.46 848.276 1696.5 845.29 1696.5 841.236V796.436H1639.86V841.236ZM1984.33 852.756H1883.53C1856.86 852.756 1837.02 847.423 1824.01 836.756C1811.21 826.09 1804.81 809.663 1804.81 787.476V687.636C1804.81 665.45 1811.21 649.023 1824.01 638.356C1837.02 627.69 1856.86 622.356 1883.53 622.356H1963.53C1967.58 622.356 1970.46 623.316 1972.17 625.236C1974.09 626.943 1975.05 629.823 1975.05 633.876V672.596C1975.05 676.65 1974.09 679.636 1972.17 681.556C1970.46 683.263 1967.58 684.116 1963.53 684.116H1896.97C1890.36 684.116 1885.45 685.503 1882.25 688.276C1879.05 690.836 1877.45 694.783 1877.45 700.116V776.596C1877.45 781.93 1878.62 785.876 1880.97 788.436C1883.53 790.996 1887.26 792.276 1892.17 792.276H1923.21V742.356C1923.21 738.303 1924.06 735.423 1925.77 733.716C1927.69 731.796 1930.68 730.836 1934.73 730.836H1984.33C1988.38 730.836 1991.26 731.796 1992.97 733.716C1994.89 735.423 1995.85 738.303 1995.85 742.356V841.236C1995.85 845.29 1994.89 848.276 1992.97 850.196C1991.26 851.903 1988.38 852.756 1984.33 852.756ZM2107.21 679.956V720.916H2131.21C2136.76 720.916 2140.49 719.53 2142.41 716.756C2144.33 713.77 2145.29 710.143 2145.29 705.876V694.996C2145.29 690.73 2144.33 687.21 2142.41 684.436C2140.49 681.45 2136.76 679.956 2131.21 679.956H2107.21ZM2095.69 852.756H2046.41C2042.36 852.756 2039.37 851.903 2037.45 850.196C2035.75 848.276 2034.89 845.29 2034.89 841.236V633.876C2034.89 629.823 2035.75 626.943 2037.45 625.236C2039.37 623.316 2042.36 622.356 2046.41 622.356H2152.97C2176.87 622.356 2193.29 627.37 2202.25 637.396C2211.43 647.21 2216.01 660.01 2216.01 675.796V690.516C2216.01 699.476 2214.63 707.156 2211.85 713.556C2209.29 719.743 2204.71 724.223 2198.09 726.996C2209.61 728.276 2218.89 732.97 2225.93 741.076C2233.19 749.183 2236.81 759.956 2236.81 773.396V841.236C2236.81 845.29 2235.85 848.276 2233.93 850.196C2232.23 851.903 2229.35 852.756 2225.29 852.756H2175.69C2171.64 852.756 2168.65 851.903 2166.73 850.196C2165.03 848.276 2164.17 845.29 2164.17 841.236V792.276C2164.17 787.583 2163.21 784.17 2161.29 782.036C2159.59 779.69 2156.49 778.516 2152.01 778.516H2107.21V841.236C2107.21 845.29 2106.25 848.276 2104.33 850.196C2102.63 851.903 2099.75 852.756 2095.69 852.756ZM2356.23 689.556L2341.19 738.196H2391.43L2376.39 689.556C2375.53 687.636 2374.57 686.25 2373.51 685.396C2372.65 684.543 2371.59 684.116 2370.31 684.116H2362.31C2361.03 684.116 2359.85 684.543 2358.79 685.396C2357.93 686.25 2357.08 687.636 2356.23 689.556ZM2337.99 841.236C2337.99 845.29 2337.03 848.276 2335.1 850.196C2333.4 851.903 2330.52 852.756 2326.47 852.756H2279.43C2275.37 852.756 2272.39 851.903 2270.47 850.196C2268.76 848.276 2267.91 845.29 2267.91 841.236V756.756C2267.91 750.356 2268.87 742.996 2270.79 734.676C2272.92 726.356 2276.12 716.65 2280.39 705.556L2308.23 632.916C2309.51 629.29 2311.43 626.623 2313.99 624.916C2316.76 623.21 2320.28 622.356 2324.55 622.356H2410.62C2414.68 622.356 2417.99 623.21 2420.55 624.916C2423.32 626.623 2425.35 629.29 2426.63 632.916L2454.47 705.556C2458.73 716.65 2461.83 726.356 2463.75 734.676C2465.88 742.996 2466.95 750.356 2466.95 756.756V841.236C2466.95 845.29 2465.99 848.276 2464.07 850.196C2462.36 851.903 2459.48 852.756 2455.43 852.756H2407.11C2402.84 852.756 2399.64 851.903 2397.51 850.196C2395.59 848.276 2394.63 845.29 2394.63 841.236V796.436H2337.99V841.236ZM2565.66 852.756H2517.98C2513.92 852.756 2510.94 851.903 2509.02 850.196C2507.31 848.276 2506.46 845.29 2506.46 841.236V633.876C2506.46 629.823 2507.31 626.943 2509.02 625.236C2510.94 623.316 2513.92 622.356 2517.98 622.356H2569.5C2572.91 622.356 2575.68 623.103 2577.82 624.596C2580.16 626.09 2582.3 628.543 2584.22 631.956L2613.02 684.116C2614.08 686.036 2614.94 687.423 2615.58 688.276C2616.43 689.13 2617.5 689.556 2618.78 689.556H2621.66C2622.94 689.556 2623.9 689.13 2624.54 688.276C2625.39 687.423 2626.35 686.036 2627.42 684.116L2655.9 631.956C2657.82 628.543 2659.84 626.09 2661.98 624.596C2664.32 623.103 2667.2 622.356 2670.62 622.356H2722.46C2726.51 622.356 2729.39 623.316 2731.1 625.236C2733.02 626.943 2733.98 629.823 2733.98 633.876V841.236C2733.98 845.29 2733.02 848.276 2731.1 850.196C2729.39 851.903 2726.51 852.756 2722.46 852.756H2673.18C2669.12 852.756 2666.14 851.903 2664.22 850.196C2662.51 848.276 2661.66 845.29 2661.66 841.236V728.596L2642.78 763.476C2640.86 767.103 2638.51 769.77 2635.74 771.476C2633.18 772.97 2629.87 773.716 2625.82 773.716H2613.02C2608.96 773.716 2605.55 772.97 2602.78 771.476C2600.22 769.77 2597.98 767.103 2596.06 763.476L2577.18 728.596V841.236C2577.18 845.29 2576.22 848.276 2574.3 850.196C2572.59 851.903 2569.71 852.756 2565.66 852.756ZM2884.9 852.756H2783.78C2779.72 852.756 2776.74 851.903 2774.82 850.196C2773.11 848.276 2772.26 845.29 2772.26 841.236V803.796C2772.26 799.743 2773.11 796.863 2774.82 795.156C2776.74 793.236 2779.72 792.276 2783.78 792.276H2869.86C2872.63 792.276 2874.66 791.423 2875.94 789.716C2877.43 787.796 2878.18 785.556 2878.18 782.996C2878.18 779.37 2877.43 776.703 2875.94 774.996C2874.66 773.29 2872.63 772.33 2869.86 772.116L2821.86 765.396C2806.92 763.263 2794.87 758.356 2785.7 750.676C2776.74 742.996 2772.26 730.196 2772.26 712.276V678.676C2772.26 660.543 2778.12 646.676 2789.86 637.076C2801.59 627.263 2817.8 622.356 2838.5 622.356H2928.1C2932.15 622.356 2935.03 623.316 2936.74 625.236C2938.66 626.943 2939.62 629.823 2939.62 633.876V671.956C2939.62 676.01 2938.66 678.996 2936.74 680.916C2935.03 682.623 2932.15 683.476 2928.1 683.476H2853.54C2850.76 683.476 2848.63 684.436 2847.14 686.356C2845.64 688.063 2844.9 690.303 2844.9 693.076C2844.9 695.85 2845.64 698.196 2847.14 700.116C2848.63 702.036 2850.76 703.103 2853.54 703.316L2901.22 709.716C2916.15 711.85 2928.2 716.756 2937.38 724.436C2946.55 732.116 2951.14 744.916 2951.14 762.836V796.436C2951.14 814.57 2945.16 828.543 2933.22 838.356C2921.48 847.956 2905.38 852.756 2884.9 852.756Z" fill="#FF9933"/>
</svg>
